<svg width="138" height="139" viewBox="0 0 138 139" fill="none" xmlns="http://www.w3.org/2000/svg">
<rect x="15.5254" y="16.4814" width="106" height="106" rx="53" fill="#313131"/>
<rect x="15.5254" y="16.4814" width="106" height="106" rx="53" stroke="#1E1E1E" stroke-width="17"/>
<g clip-path="url(#clip0_775_1222)">
<path d="M68.5254 69.4814C68.5254 66.9619 69.5263 64.5455 71.3079 62.7639C73.0895 60.9823 75.5058 59.9814 78.0254 59.9814C80.5449 59.9814 82.9613 60.9823 84.7429 62.7639C86.5245 64.5455 87.5254 66.9619 87.5254 69.4814C87.5254 72.001 86.5245 74.4174 84.7429 76.199C82.9613 77.9806 80.5449 78.9814 78.0254 78.9814C75.5058 78.9814 73.0895 77.9806 71.3079 76.199C69.5263 74.4174 68.5254 72.001 68.5254 69.4814V69.4814Z" fill="#1ABCFE"/>
<path d="M49.5254 88.4814C49.5254 85.9619 50.5263 83.5455 52.3079 81.7639C54.0895 79.9823 56.5058 78.9814 59.0254 78.9814H68.5254V88.4814C68.5254 91.001 67.5245 93.4174 65.7429 95.199C63.9613 96.9806 61.5449 97.9814 59.0254 97.9814C56.5058 97.9814 54.0895 96.9806 52.3079 95.199C50.5263 93.4174 49.5254 91.001 49.5254 88.4814V88.4814Z" fill="#0ACF83"/>
<path d="M68.5254 40.9814V59.9814H78.0254C80.5449 59.9814 82.9613 58.9806 84.7429 57.199C86.5245 55.4174 87.5254 53.001 87.5254 50.4814C87.5254 47.9619 86.5245 45.5455 84.7429 43.7639C82.9613 41.9823 80.5449 40.9814 78.0254 40.9814H68.5254Z" fill="#FF7262"/>
<path d="M49.5254 50.4814C49.5254 53.001 50.5263 55.4174 52.3079 57.199C54.0895 58.9806 56.5058 59.9814 59.0254 59.9814H68.5254V40.9814H59.0254C56.5058 40.9814 54.0895 41.9823 52.3079 43.7639C50.5263 45.5455 49.5254 47.9619 49.5254 50.4814V50.4814Z" fill="#F24E1E"/>
<path d="M49.5254 69.4814C49.5254 72.001 50.5263 74.4174 52.3079 76.199C54.0895 77.9806 56.5058 78.9814 59.0254 78.9814H68.5254V59.9814H59.0254C56.5058 59.9814 54.0895 60.9823 52.3079 62.7639C50.5263 64.5455 49.5254 66.9619 49.5254 69.4814V69.4814Z" fill="#A259FF"/>
</g>
<mask id="mask0_775_1222" style="mask-type:alpha" maskUnits="userSpaceOnUse" x="6" y="7" width="125" height="124">
<path fill-rule="evenodd" clip-rule="evenodd" d="M128.231 85.1435L119.861 82.8881C120.429 80.6726 120.86 78.3901 121.14 76.0477C121.421 73.7053 121.542 71.3838 121.514 69.0933L130.168 68.9798C130.202 71.6682 130.059 74.3886 129.731 77.1285C129.403 79.8683 128.898 82.5432 128.231 85.1435ZM127.807 52.8861L119.502 55.3824C118.22 50.9051 116.352 46.6345 113.968 42.6728L121.336 38.019C124.116 42.6411 126.304 47.6358 127.807 52.8861ZM111.308 25.3893L105.357 31.8284C102.07 28.6385 98.3608 25.8561 94.3056 23.5789L98.4651 15.8018C103.176 18.447 107.486 21.6801 111.308 25.3893ZM83.6725 9.8574L81.5576 18.457C79.3621 17.8901 77.1028 17.4555 74.7868 17.1641C72.4707 16.8727 70.1759 16.7344 67.9118 16.7402L67.8901 7.87177C70.5133 7.86503 73.1676 8.02534 75.8415 8.36175C78.5154 8.69817 81.1288 9.20061 83.6725 9.8574ZM52.1333 9.97269L54.3331 18.5499C49.8608 19.7542 45.6052 21.5346 41.6626 23.8148L37.4083 16.0917C41.9928 13.4403 46.9384 11.3716 52.1333 9.97269ZM24.6968 25.8605L30.7466 32.2024C27.4986 35.4556 24.677 39.136 22.3762 43.1627L14.9073 38.6818C17.6053 33.96 20.9072 29.656 24.6968 25.8605ZM8.81703 53.7122C8.14972 56.3124 7.6456 58.9874 7.31729 61.7272C6.98898 64.4671 6.84657 67.1875 6.88015 69.8759L15.5344 69.7624C15.5058 67.4719 15.627 65.1504 15.9077 62.808C16.1884 60.4656 16.6188 58.183 17.1874 55.9676L8.81703 53.7122ZM9.24084 85.9695L17.5458 83.4733C18.8276 87.9506 20.6964 92.2212 23.0799 96.1829L15.7124 100.837C12.9316 96.2146 10.7439 91.2199 9.24084 85.9695ZM25.7401 113.466L31.6914 107.027C34.9785 110.217 38.6873 113 42.7425 115.277L38.583 123.054C33.8726 120.409 29.5623 117.176 25.7401 113.466ZM53.3756 128.998L55.4905 120.399C57.686 120.966 59.9453 121.4 62.2614 121.692C64.5774 121.983 66.8722 122.121 69.1363 122.116L69.158 130.984C66.5348 130.991 63.8805 130.83 61.2066 130.494C58.5327 130.158 55.9193 129.655 53.3756 128.998ZM84.9148 128.883L82.715 120.306C87.1873 119.101 91.4429 117.321 95.3855 115.041L99.6398 122.764C95.0553 125.415 90.1097 127.484 84.9148 128.883ZM112.351 112.995L106.301 106.653C109.55 103.4 112.371 99.7196 114.672 95.693L122.141 100.174C119.443 104.896 116.141 109.2 112.351 112.995Z" fill="white"/>
</mask>
<g mask="url(#mask0_775_1222)">
<rect x="33.9043" y="5.68457" width="23.8011" height="21.0625" fill="#F24E1E"/>
<rect x="11.1846" y="25.6387" width="23.8011" height="21.0625" fill="#A259FF"/>
<rect x="1.44824" y="50.0264" width="23.8011" height="21.0625" fill="#0ACF83"/>
<rect x="4.69434" y="81.0654" width="23.8011" height="21.0625" fill="#FF7262"/>
<rect x="24.168" y="104.346" width="23.8011" height="21.0625" fill="#1ABCFE"/>
<rect x="51.2139" y="115.431" width="23.8011" height="21.0625" fill="#F24E1E"/>
<rect x="79.3428" y="110.997" width="23.8011" height="21.0625" fill="#A259FF"/>
<rect x="104.226" y="93.2607" width="23.8011" height="21.0625" fill="#0ACF83"/>
<rect x="112.881" y="66.6533" width="23.8011" height="21.0625" fill="#FF7262"/>
<rect x="108.553" y="35.6152" width="23.8011" height="21.0625" fill="#1ABCFE"/>
<rect x="91.2432" y="12.335" width="23.8011" height="21.0625" fill="#F24E1E"/>
<rect x="62.0332" y="2.3584" width="23.8011" height="21.0625" fill="#0ACF83"/>
</g>
<defs>
<clipPath id="clip0_775_1222">
<rect width="38" height="57" fill="white" transform="translate(49.5254 40.9814)"/>
</clipPath>
</defs>
</svg>
