<svg width="128" height="125" viewBox="0 0 128 125" fill="none" xmlns="http://www.w3.org/2000/svg">
<rect x="1.99805" y="1" width="123" height="123" rx="61.5" fill="#1E1E1E"/>
<g clip-path="url(#clip0_775_1222)">
<path d="M63.498 62.5C63.498 59.9804 64.4989 57.5641 66.2805 55.7825C68.0621 54.0009 70.4785 53 72.998 53C75.5176 53 77.934 54.0009 79.7156 55.7825C81.4972 57.5641 82.498 59.9804 82.498 62.5C82.498 65.0196 81.4972 67.4359 79.7156 69.2175C77.934 70.9991 75.5176 72 72.998 72C70.4785 72 68.0621 70.9991 66.2805 69.2175C64.4989 67.4359 63.498 65.0196 63.498 62.5V62.5Z" fill="#1ABCFE"/>
<path d="M44.498 81.5C44.498 78.9804 45.4989 76.5641 47.2805 74.7825C49.0621 73.0009 51.4785 72 53.998 72H63.498V81.5C63.498 84.0196 62.4972 86.4359 60.7156 88.2175C58.934 89.9991 56.5176 91 53.998 91C51.4785 91 49.0621 89.9991 47.2805 88.2175C45.4989 86.4359 44.498 84.0196 44.498 81.5V81.5Z" fill="#0ACF83"/>
<path d="M63.498 34V53H72.998C75.5176 53 77.934 51.9991 79.7156 50.2175C81.4972 48.4359 82.498 46.0196 82.498 43.5C82.498 40.9804 81.4972 38.5641 79.7156 36.7825C77.934 35.0009 75.5176 34 72.998 34H63.498Z" fill="#FF7262"/>
<path d="M44.498 43.5C44.498 46.0196 45.4989 48.4359 47.2805 50.2175C49.0621 51.9991 51.4785 53 53.998 53H63.498V34H53.998C51.4785 34 49.0621 35.0009 47.2805 36.7825C45.4989 38.5641 44.498 40.9804 44.498 43.5V43.5Z" fill="#F24E1E"/>
<path d="M44.498 62.5C44.498 65.0196 45.4989 67.4359 47.2805 69.2175C49.0621 70.9991 51.4785 72 53.998 72H63.498V53H53.998C51.4785 53 49.0621 54.0009 47.2805 55.7825C45.4989 57.5641 44.498 59.9804 44.498 62.5V62.5Z" fill="#A259FF"/>
</g>
<mask id="mask0_775_1222" style="mask-type:alpha" maskUnits="userSpaceOnUse" x="7" y="6" width="114" height="113">
<path fill-rule="evenodd" clip-rule="evenodd" d="M119.189 76.6774L111.452 74.6428C111.977 72.6443 112.375 70.5853 112.635 68.4722C112.894 66.3592 113.006 64.2651 112.98 62.1988L120.979 62.0964C121.01 64.5216 120.878 66.9756 120.575 69.4472C120.272 71.9187 119.806 74.3317 119.189 76.6774ZM118.797 47.5787L111.12 49.8306C109.936 45.7917 108.208 41.9393 106.005 38.3655L112.815 34.1674C115.386 38.337 117.408 42.8425 118.797 47.5787ZM103.546 22.7745L98.0453 28.583C95.0069 25.7055 91.5788 23.1956 87.8305 21.1414L91.6752 14.1259C96.0292 16.512 100.013 19.4285 103.546 22.7745ZM78.002 8.76352L76.0471 16.521C74.0178 16.0096 71.9294 15.6175 69.7887 15.3547C67.6479 15.0918 65.5267 14.9671 63.4339 14.9723L63.4139 6.97233C65.8385 6.96625 68.292 7.11086 70.7636 7.41433C73.2352 7.7178 75.6508 8.17104 78.002 8.76352ZM48.8495 8.86751L50.8828 16.6048C46.7489 17.6912 42.8154 19.2972 39.1711 21.3542L35.2387 14.3874C39.4763 11.9955 44.0476 10.1294 48.8495 8.86751ZM23.4891 23.1995L29.0811 28.9205C26.0789 31.8551 23.4708 35.1751 21.3441 38.8074L14.4404 34.7654C16.9342 30.5059 19.9863 26.6234 23.4891 23.1995ZM8.81098 48.3239C8.19416 50.6695 7.7282 53.0825 7.42473 55.5541C7.12126 58.0256 6.98963 60.4797 7.02067 62.9048L15.02 62.8025C14.9936 60.7362 15.1056 58.6421 15.3651 56.529C15.6245 54.416 16.0224 52.357 16.5479 50.3585L8.81098 48.3239ZM9.20271 77.4225L16.8792 75.1707C18.064 79.2096 19.7915 83.062 21.9946 86.6357L15.1846 90.8339C12.6142 86.6643 10.592 82.1588 9.20271 77.4225ZM24.4534 102.227L29.9544 96.4182C32.9928 99.2957 36.4209 101.806 40.1692 103.86L36.3245 110.875C31.9705 108.489 27.9864 105.573 24.4534 102.227ZM49.9978 116.238L51.9526 108.48C53.9819 108.992 56.0703 109.384 58.2111 109.647C60.3518 109.909 62.473 110.034 64.5658 110.029L64.5859 118.029C62.1612 118.035 59.7077 117.89 57.2361 117.587C54.7645 117.283 52.3489 116.83 49.9978 116.238ZM79.1502 116.134L77.1169 108.396C81.2508 107.31 85.1844 105.704 88.8286 103.647L92.761 110.614C88.5234 113.006 83.9521 114.872 79.1502 116.134ZM104.511 101.802L98.9186 96.0808C101.921 93.1462 104.529 89.8262 106.656 86.1938L113.559 90.2359C111.066 94.4953 108.013 98.3779 104.511 101.802Z" fill="white"/>
</mask>
<g mask="url(#mask0_775_1222)">
<rect x="32" y="5" width="22" height="19" fill="#F24E1E"/>
<rect x="11" y="23" width="22" height="19" fill="#A259FF"/>
<rect x="2" y="45" width="22" height="19" fill="#0ACF83"/>
<rect x="5" y="73" width="22" height="19" fill="#FF7262"/>
<rect x="23" y="94" width="22" height="19" fill="#1ABCFE"/>
<rect x="48" y="104" width="22" height="19" fill="#F24E1E"/>
<rect x="74" y="100" width="22" height="19" fill="#A259FF"/>
<rect x="97" y="84" width="22" height="19" fill="#0ACF83"/>
<rect x="105" y="60" width="22" height="19" fill="#FF7262"/>
<rect x="101" y="32" width="22" height="19" fill="#1ABCFE"/>
<rect x="85" y="11" width="22" height="19" fill="#F24E1E"/>
<rect x="58" y="2" width="22" height="19" fill="#0ACF83"/>
</g>
<defs>
<clipPath id="clip0_775_1222">
<rect width="38" height="57" fill="white" transform="translate(44.498 34)"/>
</clipPath>
</defs>
</svg>
